REM Ripping Tool: trurip

FILE "Championship Rally (1993)(Intec)(JP).img" BINARY
  TRACK 01 AUDIO
    INDEX 01 00:00:00
  TRACK 02 MODE1/2352
    INDEX 00 00:44:65
    INDEX 01 00:47:65
  TRACK 03 AUDIO
    INDEX 00 01:21:04
    INDEX 01 01:23:04
  TRACK 04 AUDIO
    INDEX 01 04:50:62
  TRACK 05 AUDIO
    INDEX 01 09:00:23
  TRACK 06 AUDIO
    INDEX 01 13:52:38
  TRACK 07 AUDIO
    INDEX 01 18:05:25
  TRACK 08 AUDIO
    INDEX 01 21:40:69
  TRACK 09 AUDIO
    INDEX 01 26:23:35
  TRACK 10 MODE1/2352
    INDEX 00 29:27:49
    INDEX 01 29:30:49

REM DISC HASHES
REM CRC32 : ba15308b
REM MD5   : 3857d52509a88cebae85335c80738214
REM SHA1  : 83ac8020ba86ef30a909d6743841610475fa859c

REM Gap Append Method: Prev [crc32]
REM Trk 01: 74ae6c0c
REM Trk 02: 8dcd1a11
REM Trk 03: 320c2d5f
REM Trk 04: 2cf62931
REM Trk 05: 70fe3d61
REM Trk 06: ff37bae0
REM Trk 07: 6c5d9d56
REM Trk 08: b720ad6a
REM Trk 09: c1932167
REM Trk 10: 7851ba93

REM Gap Append Method: Prev [md5]
REM Trk 01: fbf50389c12bb4e6fe0c227215ab5f0b
REM Trk 02: 0b52d55d3f991bd54c25f260ce046a8d
REM Trk 03: 4bf4440ed82b8b6a43fa4fad0f58e049
REM Trk 04: e4a4353848f51dad000925ab9d8b629e
REM Trk 05: 11033cd8859521cd9531e709b9fac4e9
REM Trk 06: a6901f7f4025fbaf505d09c0cabc0fc6
REM Trk 07: d31f16f7b4166ea1e2a1083e3200bf7d
REM Trk 08: a01b013b3c5f536fe536bff3107fb890
REM Trk 09: 343d40e4384fac30f3b6f97347dc1b1c
REM Trk 10: a1cad9d5cddf620dc6a974d5d037a6b5

REM Gap Append Method: Prev [sha1]
REM Trk 01: 087739e80f99e72ae58a5da960a43f6d84b79472
REM Trk 02: 5ba5c5bdce0acba4c0a9549c9aa853bc9a178941
REM Trk 03: f72ecc7bfdf90132383d38b9fb923a709b80bd3b
REM Trk 04: 74318d2ba47ecff9ca3a43265faa5a2bac1f1df7
REM Trk 05: 6149e7c5561e4a2a1169749c0aec24ebc9e39ccf
REM Trk 06: 5909ed56a40a61fa863b498de7c815903bac6720
REM Trk 07: 4d46bc11f356e88610d2a3177edac32b57a7e6b4
REM Trk 08: 4fef34ccd6a4ed46dbaf975eedfdc2a6025c085f
REM Trk 09: 2278e5f2d7daec7e20c470181332dd91fe299627
REM Trk 10: e5806b24e721d49514de8613f4719c52de3ca350

REM Gap Append Method: None [crc32]
REM Trk 01: c81674fe
REM Trk 02: fc3b2e7d
REM Trk 03: 320c2d5f
REM Trk 04: 2cf62931
REM Trk 05: 70fe3d61
REM Trk 06: ff37bae0
REM Trk 07: 6c5d9d56
REM Trk 08: b720ad6a
REM Trk 09: 9ea1baa7
REM Trk 10: 7851ba93
REM Gap 02: 58fd8bb2
REM Gap 03: 7abe247f
REM Gap 10: f9c5ff4a

REM Gap Append Method: None [md5]
REM Trk 01: cfaff9201b5bce5dfc3969e838aae3c1
REM Trk 02: 8f90e679729eaad0297f4f60c2b5a4b7
REM Trk 03: 4bf4440ed82b8b6a43fa4fad0f58e049
REM Trk 04: e4a4353848f51dad000925ab9d8b629e
REM Trk 05: 11033cd8859521cd9531e709b9fac4e9
REM Trk 06: a6901f7f4025fbaf505d09c0cabc0fc6
REM Trk 07: d31f16f7b4166ea1e2a1083e3200bf7d
REM Trk 08: a01b013b3c5f536fe536bff3107fb890
REM Trk 09: d36354c5655286e403ece1fa195fadf7
REM Trk 10: a1cad9d5cddf620dc6a974d5d037a6b5
REM Gap 02: ac56fd9130812a6df37b0b2d2a561658
REM Gap 03: 9df204fbc98bb8965081cb30a89715fc
REM Gap 10: 57ddd5864be9bc5afc06a2b71d71d3ab

REM Gap Append Method: None [sha1]
REM Trk 01: c56d7870114957140153468c999922c7cc459f6c
REM Trk 02: e48535ae32afc0d5a6323cb1df3e0c4ced3013f3
REM Trk 03: f72ecc7bfdf90132383d38b9fb923a709b80bd3b
REM Trk 04: 74318d2ba47ecff9ca3a43265faa5a2bac1f1df7
REM Trk 05: 6149e7c5561e4a2a1169749c0aec24ebc9e39ccf
REM Trk 06: 5909ed56a40a61fa863b498de7c815903bac6720
REM Trk 07: 4d46bc11f356e88610d2a3177edac32b57a7e6b4
REM Trk 08: 4fef34ccd6a4ed46dbaf975eedfdc2a6025c085f
REM Trk 09: 5c86eaa4610b59682a1aac06cf1612c8abb7f67e
REM Trk 10: e5806b24e721d49514de8613f4719c52de3ca350
REM Gap 02: 0540dd90a939e1b62025f5148a11224f38c7b903
REM Gap 03: cbe29e0bd725ef1194f8c47619dd42078e841de2
REM Gap 10: eabd20ef5ef18bc593f24ea92a23e9b7803a4b10

REM Gap Append Method: Next [crc32]
REM Trk 01: c81674fe
REM Trk 02: 4d823d97
REM Trk 03: 795d43cc
REM Trk 04: 2cf62931
REM Trk 05: 70fe3d61
REM Trk 06: ff37bae0
REM Trk 07: 6c5d9d56
REM Trk 08: b720ad6a
REM Trk 09: 9ea1baa7
REM Trk 10: 8132aa5c

REM Gap Append Method: Next [md5]
REM Trk 01: cfaff9201b5bce5dfc3969e838aae3c1
REM Trk 02: 4c432ec7da157ad2a8cb11e221f94bf5
REM Trk 03: a489939162763ff1c38d6886629eac3a
REM Trk 04: e4a4353848f51dad000925ab9d8b629e
REM Trk 05: 11033cd8859521cd9531e709b9fac4e9
REM Trk 06: a6901f7f4025fbaf505d09c0cabc0fc6
REM Trk 07: d31f16f7b4166ea1e2a1083e3200bf7d
REM Trk 08: a01b013b3c5f536fe536bff3107fb890
REM Trk 09: d36354c5655286e403ece1fa195fadf7
REM Trk 10: ed9f82237e299342cd62b98029492416

REM Gap Append Method: Next [sha1]
REM Trk 01: c56d7870114957140153468c999922c7cc459f6c
REM Trk 02: a7f3c87dfba0d501eb2e11670ff6916c9bbdec21
REM Trk 03: e924384325bb1f1a86f9fbbaaa07e56d89603581
REM Trk 04: 74318d2ba47ecff9ca3a43265faa5a2bac1f1df7
REM Trk 05: 6149e7c5561e4a2a1169749c0aec24ebc9e39ccf
REM Trk 06: 5909ed56a40a61fa863b498de7c815903bac6720
REM Trk 07: 4d46bc11f356e88610d2a3177edac32b57a7e6b4
REM Trk 08: 4fef34ccd6a4ed46dbaf975eedfdc2a6025c085f
REM Trk 09: 5c86eaa4610b59682a1aac06cf1612c8abb7f67e
REM Trk 10: a2c247a23689807b22bd5bc173acf362d4263c93

